<?xml version="1.0" standalone="no"?>
<!DOCTYPE svg PUBLIC "-//W3C//DTD SVG 20010904//EN"
 "http://www.w3.org/TR/2001/REC-SVG-20010904/DTD/svg10.dtd">
<svg version="1.0" xmlns="http://www.w3.org/2000/svg"
 width="512.000000pt" height="512.000000pt" viewBox="0 0 512.000000 512.000000"
 preserveAspectRatio="xMidYMid meet">

<g transform="translate(0.000000,512.000000) scale(0.100000,-0.100000)"
fill="#000000" stroke="none">
<path d="M565 5111 c-85 -21 -162 -82 -206 -163 l-34 -63 0 -1415 c0 -1316 1
-1422 18 -1515 99 -556 403 -1006 937 -1387 292 -208 637 -375 1075 -519 209
-69 263 -62 659 87 916 347 1530 928 1721 1629 63 232 60 151 60 1705 l0 1415
-34 63 c-53 98 -140 157 -249 168 -86 9 -150 -13 -279 -99 -129 -85 -269 -145
-423 -179 -90 -20 -132 -23 -295 -22 -169 0 -202 3 -301 26 -149 35 -287 94
-405 174 -208 139 -290 139 -498 0 -118 -80 -256 -139 -405 -174 -99 -23 -132
-26 -301 -26 -163 -1 -205 2 -295 22 -154 34 -294 94 -423 179 -144 95 -222
118 -322 94z m2129 -1286 c183 -39 352 -170 434 -336 60 -121 72 -188 72 -415
l0 -192 43 -6 c105 -16 200 -87 246 -185 l26 -56 0 -395 0 -395 -26 -56 c-33
-71 -87 -125 -158 -158 l-56 -26 -715 0 -715 0 -56 26 c-71 33 -125 87 -158
158 l-26 56 0 395 0 395 26 56 c46 98 141 169 246 185 l43 6 0 192 c0 227 12
294 72 415 126 256 420 396 702 336z"/>
<path d="M2463 3502 c-72 -26 -128 -67 -163 -120 -51 -77 -60 -126 -60 -324
l0 -178 321 0 321 0 -4 198 c-3 188 -4 199 -29 253 -69 146 -241 223 -386 171z"/>
<path d="M2494 2386 c-17 -8 -44 -31 -60 -52 -24 -31 -29 -47 -29 -94 0 -46 5
-63 27 -92 56 -74 152 -88 224 -33 116 88 62 270 -83 282 -28 2 -61 -3 -79
-11z"/>
</g>
</svg>
